PathFileType	4	(X/Y/Z)	./resultDataOpenSim/trcMotMarkerGrf/sub10/qtm-14-04.trc
DataRate	CameraRate	NumFrames	NumMarkers	Units	OrigDataRate	OrigDataStartFrame	OrigNumFrames
250.000000	250.000000	8	24	m	250.000000	1	490
Frame#	Time	L.Toe.Tip			R.Toe.Tip			L.Ankle.Lat			R.Ankle.Lat			L.Ankle.Med			R.Ankle.Med			L.Heel			R.Heel			L.Knee.Lat			R.Knee.Lat			L.Knee.Med			R.Knee.Med			L.Thigh.Upper			R.Thigh.Upper			L.ASIS			R.ASIS			V.Sacral			L.Acromium			R.Acromium			C7			L.Elbow			R.Elbow			L.Wrist.Lat			R.Wrist.Lat
		X1	Y1	Z1	X2	Y2	Z2	X3	Y3	Z3	X4	Y4	Z4	X5	Y5	Z5	X6	Y6	Z6	X7	Y7	Z7	X8	Y8	Z8	X9	Y9	Z9	X10	Y10	Z10	X11	Y11	Z11	X12	Y12	Z12	X13	Y13	Z13	X14	Y14	Z14	X15	Y15	Z15	X16	Y16	Z16	X17	Y17	Z17	X18	Y18	Z18	X19	Y19	Z19	X20	Y20	Z20	X21	Y21	Z21	X22	Y22	Z22	X23	Y23	Z23	X24	Y24	Z24

1	0	-1.5156062	0.038182978	-0.21237649	-0.98002925	0.086669177	-0.0097356299	-1.6485937	0.068298108	-0.2413544	-1.120119	0.068876147	-0.0050320657	-1.6336874	0.092158805	-0.1596021	-1.0937051	0.1064522	-0.079342719	NaN	NaN	NaN	-1.1493232	0.034382549	-0.069482297	-1.5241168	0.43428842	-0.2717504	-1.2329207	0.45488136	0.025886828	-1.519435	0.41353073	-0.15237255	-1.200731	0.46367735	-0.099613335	-1.4202465	0.81570953	-0.32852908	-1.3702262	0.84946425	0.055455879	-1.3451102	0.9191267	-0.27434386	-1.3096098	0.94203469	-0.03247724	-1.5213876	0.9378018	-0.12202797	-1.3374608	1.3905085	-0.31523863	-1.3569146	1.3956096	0.0042672859	-1.4271486	1.4277147	-0.16477188	-1.4139562	1.0452332	-0.36591293	-1.5149071	1.0849441	0.061734516	-1.2047047	0.90827052	-0.34308939	-1.3994656	0.88277578	0.15516736
2	0.004	-1.5151209	0.038138459	-0.21271835	-0.96462769	0.091365623	-0.0096467815	-1.6483453	0.068974913	-0.24109835	-1.1047211	0.069985426	-0.0033532552	-1.6336693	0.092725578	-0.15931939	-1.0798911	0.10812288	-0.0781255	NaN	NaN	NaN	-1.1336535	0.0346304	-0.067416187	-1.5204586	0.43398016	-0.27167169	-1.2276158	0.4531294	0.026574706	-1.5155146	0.41294612	-0.15211215	-1.1957867	0.46191014	-0.099204643	-1.4145005	0.81496638	-0.32803826	-1.3646225	0.84804911	0.055795321	-1.3396392	0.91831416	-0.27390875	-1.3037913	0.94121932	-0.031939295	-1.5166222	0.9361344	-0.12158003	-1.3321791	1.3892641	-0.31476248	-1.3520087	1.3941574	0.0047282914	-1.4221628	1.4265214	-0.16438628	-1.4075305	1.0436854	-0.36796904	-1.5100722	1.0838711	0.062008081	-1.1965205	0.9086447	-0.34217075	-1.3967544	0.88090256	0.1558086
3	0.008	-1.515036	0.038073707	-0.21267286	-0.94957798	0.096195627	-0.0096960094	-1.6480616	0.069712413	-0.2408429	-1.08956	0.071175684	-0.0016892863	-1.6332993	0.093349387	-0.15904054	-1.066314	0.10981789	-0.076916731	NaN	NaN	NaN	-1.1181134	0.034985294	-0.065023106	-1.5167636	0.43365311	-0.27150049	-1.2221985	0.45146531	0.027278989	-1.5113674	0.41240995	-0.15185403	-1.1908285	0.46017172	-0.098766174	-1.4087757	0.81420455	-0.32760139	-1.3588867	0.84663333	0.0561764	-1.3341246	0.91752038	-0.27345085	-1.297947	0.94040235	-0.031397196	-1.5124653	0.93449246	-0.12150143	-1.3268793	1.3880188	-0.31429115	-1.3470379	1.3927207	0.0051650495	-1.4171917	1.4253189	-0.16404566	-1.4008106	1.0421516	-0.36930907	-1.5050497	1.0826849	0.062152341	-1.1883445	0.90899538	-0.34124793	-1.3940081	0.87902055	0.15644488
4	0.012	-1.5153336	0.038006966	-0.21227029	-0.93508773	0.10117077	-0.010009874	-1.6477263	0.070529141	-0.24059149	-1.0747752	0.072494655	-4.8455136e-05	-1.6324895	0.094060018	-0.15875894	-1.0531326	0.11152488	-0.075723817	NaN	NaN	NaN	-1.1027822	0.035524899	-0.06207926	-1.5129813	0.43331045	-0.27122543	-1.2165805	0.44994108	0.028014527	-1.5069061	0.41192133	-0.15159552	-1.1858412	0.45848037	-0.098284063	-1.4030944	0.81340169	-0.32727449	-1.3530007	0.84522529	0.056595026	-1.3285583	0.9167383	-0.27298189	-1.2920361	0.9395821	-0.030850521	-1.5087002	0.93291652	-0.12168217	-1.3215545	1.3867804	-0.31380881	-1.3420385	1.3913022	0.0055798479	-1.4122323	1.4241122	-0.1637593	-1.3937091	1.0406663	-0.36980312	-1.4997973	1.0813706	0.062211473	-1.1801772	0.90931287	-0.34031381	-1.3912354	0.87712259	0.15706867
5	0.016	-1.5156749	0.037954401	-0.21183118	-0.92119643	0.10616426	-0.010558124	-1.6473485	0.071408562	-0.24035207	-1.0604542	0.073939196	0.0015500946	-1.6314764	0.094838062	-0.1584626	-1.0404362	0.11321092	-0.074550937	NaN	NaN	NaN	-1.0878	0.036233197	-0.058783877	-1.5090684	0.4329461	-0.27088285	-1.2107495	0.44857423	0.028786901	-1.5023007	0.41142369	-0.15130194	-1.1808157	0.45685097	-0.097760067	-1.3974846	0.81254204	-0.32706596	-1.3470194	0.84383418	0.057027374	-1.3229678	0.91594303	-0.27253564	-1.2860449	0.93875617	-0.030310443	-1.5045003	0.93144545	-0.12166544	-1.316216	1.3855664	-0.3132912	-1.3370972	1.3899027	0.0059916918	-1.407274	1.4229152	-0.16349427	-1.3863407	1.0392674	-0.36975529	-1.4944705	1.0800302	0.062355901	-1.1720372	0.90960115	-0.33937274	-1.3884769	0.8752117	0.15767347
6	0.02	-1.5158165	0.037895528	-0.21156632	-0.90784676	0.11102772	-0.011208299	-1.6469494	0.072317498	-0.24013302	-1.046638	0.075453618	0.0030815695	-1.6306001	0.095634039	-0.15814329	-1.0282291	0.11486521	-0.073392831	NaN	NaN	NaN	-1.0733644	0.037023451	-0.055716613	-1.5050076	0.43253642	-0.2705135	-1.2047168	0.44737189	0.029597752	-1.497874	0.41085649	-0.15090557	-1.1757352	0.45529875	-0.097201547	-1.3919466	0.81164122	-0.32690817	-1.340973	0.84245207	0.057461645	-1.3173732	0.91511774	-0.27212531	-1.2799844	0.9379225	-0.029795878	-1.4993902	0.93008621	-0.12120677	-1.3108703	1.3843926	-0.31273335	-1.3321945	1.388533	0.006434679	-1.4022987	1.4217392	-0.16319809	-1.378885	1.0379574	-0.36949581	-1.4892214	1.0787623	0.062679563	-1.1639374	0.90986527	-0.33843666	-1.3857715	0.87329665	0.15825559
7	0.024	-1.5157668	0.037803231	-0.21146392	-0.89504693	0.11564221	-0.011919635	-1.6465438	0.073226179	-0.2399424	-1.0333521	0.076940234	0.0045202042	-1.6299832	0.096428698	-0.15780916	-1.0164647	0.11649604	-0.072242772	NaN	NaN	NaN	-1.0596237	0.0378378	-0.053303788	-1.5008207	0.4320797	-0.27016285	-1.1984536	0.446343	0.030453246	-1.4938118	0.41020928	-0.15038002	-1.1705801	0.45384041	-0.096618499	-1.3864535	0.81075033	-0.32672242	-1.3348426	0.84107091	0.057896874	-1.3117727	0.91426919	-0.27173779	-1.2738716	0.93708288	-0.02932245	-1.4935892	0.92879331	-0.12046634	-1.3055262	1.3832651	-0.31215514	-1.3271572	1.387208	0.0069554786	-1.3972926	1.4205923	-0.16283887	-1.3714782	1.036703	-0.36923362	-1.484051	1.0775742	0.06312665	-1.1558741	0.91010528	-0.33751619	-1.3831119	0.87138732	0.1588099
8	0.028	-1.5156329	0.037687279	-0.21144062	-0.8828976	0.11988483	-0.012715345	-1.6461291	0.074157307	-0.23979012	-1.0206515	0.078287064	0.0058358867	-1.6294528	0.097261816	-0.15749635	-1.0051119	0.1180955	-0.071105419	NaN	NaN	NaN	-1.0466404	0.038668664	-0.05156261	-1.4965431	0.43160454	-0.26986942	-1.1918522	0.44549698	0.031371977	-1.4899507	0.40952328	-0.14981137	-1.1653274	0.45248916	-0.096023484	-1.3809856	0.80991735	-0.32649825	-1.3285702	0.83970065	0.058339529	-1.3061505	0.91341702	-0.27136828	-1.2677238	0.93624067	-0.028899787	-1.4874914	0.92749075	-0.11970907	-1.3001994	1.3821825	-0.3115774	-1.3217927	1.3859305	0.007577032	-1.392252	1.4194798	-0.16242095	-1.364144	1.0354724	-0.36904981	-1.4788801	1.0764185	0.063595546	-1.1478388	0.91032404	-0.3366179	-1.3803983	0.86948815	0.15932452
